<svg width="200" height="200" viewBox="0 0 200 200" fill="none" xmlns="http://www.w3.org/2000/svg">
<path fill-rule="evenodd" clip-rule="evenodd" d="M85.0169 54.3163C88.4686 54.3163 91.2669 56.9672 91.2669 60.2371V140.5C91.2669 143.77 88.4686 140.5 85.0169 140.5C81.5651 140.5 78.7669 143.77 78.7669 140.5V60.2371C78.7669 56.9672 81.5651 54.3163 85.0169 54.3163Z" fill="white"/>
<path fill-rule="evenodd" clip-rule="evenodd" d="M100.779 71.9796C94.7375 78.3281 91.2519 87.2766 91.2519 97.502V148.127C91.2519 151.579 88.4537 154.377 85.0019 154.377C81.5501 154.377 78.7519 151.579 78.7519 148.127V97.502C78.7519 84.4278 83.2351 72.2826 91.7245 63.3622C100.259 54.3943 112.487 49.0645 127.189 49.0645C130.641 49.0645 133.439 51.8627 133.439 55.3145C133.439 58.7663 130.641 61.5645 127.189 61.5645C115.642 61.5645 106.776 65.6787 100.779 71.9796Z" fill="url(#paint0_linear)"/>
<path fill-rule="evenodd" clip-rule="evenodd" d="M100 12.5C51.6751 12.5 12.5 51.6751 12.5 100C12.5 148.325 51.6751 187.5 100 187.5C148.325 187.5 187.5 148.325 187.5 100C187.5 51.6751 148.325 12.5 100 12.5ZM0 100C0 44.7715 44.7715 0 100 0C155.228 0 200 44.7715 200 100C200 155.228 155.228 200 100 200C44.7715 200 0 155.228 0 100Z" fill="white"/>
<defs>
<linearGradient id="paint0_linear" x1="84.6894" y1="55.002" x2="127.189" y2="148.127" gradientUnits="userSpaceOnUse">
<stop stop-color="#00B2FF"/>
<stop offset="1" stop-color="#0038FF"/>
</linearGradient>
</defs>
</svg>
