<?xml version="1.0" encoding="UTF-8" standalone="no"?>
<svg
   xmlns:dc="http://purl.org/dc/elements/1.1/"
   xmlns:cc="http://creativecommons.org/ns#"
   xmlns:rdf="http://www.w3.org/1999/02/22-rdf-syntax-ns#"
   xmlns:svg="http://www.w3.org/2000/svg"
   xmlns="http://www.w3.org/2000/svg"
   width="200"
   height="200"
   viewBox="0 0 200 200"
   fill="none"
   version="1.1"
   id="svg15">
  <metadata
     id="metadata19">
    <rdf:RDF>
      <cc:Work
         rdf:about="">
        <dc:format>image/svg+xml</dc:format>
        <dc:type
           rdf:resource="http://purl.org/dc/dcmitype/StillImage" />
        <dc:title></dc:title>
      </cc:Work>
    </rdf:RDF>
  </metadata>
  <defs
     id="defs13">
    <linearGradient
       id="paint0_linear"
       x1="84.6894"
       y1="55.002"
       x2="127.189"
       y2="148.127"
       gradientUnits="userSpaceOnUse">
      <stop
         stop-color="#00B2FF"
         id="stop8" />
      <stop
         offset="1"
         stop-color="#0038FF"
         id="stop10" />
    </linearGradient>
  </defs>
  <g
     id="layer3"
     style="display:inline;opacity:0.5">
    <path
       fill-rule="evenodd"
       clip-rule="evenodd"
       d="m 85.009289,54.3163 c 3.447497,0 6.242389,2.6509 6.242389,5.9208 V 140.5 c 0,3.27 -2.794892,0 -6.242389,0 -3.447596,0 -6.242389,3.27 -6.242389,0 V 60.2371 c 0,-3.2699 2.794793,-5.9208 6.242389,-5.9208 z"
       fill="#ffffff"
       id="path2"
       style="opacity:1;stroke-width:0.999391" />
    <path
       fill-rule="evenodd"
       clip-rule="evenodd"
       d="m 100.779,71.9796 c -6.0415,6.3485 -9.5271,15.297 -9.5271,25.5224 v 50.625 c 0,3.452 -2.7982,6.25 -6.25,6.25 -3.4518,0 -6.25,-2.798 -6.25,-6.25 V 97.502 c 0,-13.0742 4.4832,-25.2194 12.9726,-34.1398 8.5345,-8.9679 20.7625,-14.2977 35.4645,-14.2977 3.452,0 6.25,2.7982 6.25,6.25 0,3.4518 -2.798,6.25 -6.25,6.25 -11.547,0 -20.413,4.1142 -26.41,10.4151 z"
       fill="url(#paint0_linear)"
       id="path4"
       style="opacity:1" />
    <path
       fill-rule="evenodd"
       clip-rule="evenodd"
       d="m 100,12.5 c -48.3249,0 -87.5,39.1751 -87.5,87.5 0,48.325 39.1751,87.5 87.5,87.5 48.325,0 87.5,-39.175 87.5,-87.5 0,-48.3249 -39.175,-87.5 -87.5,-87.5 z M 0,100 C 0,44.7715 44.7715,0 100,0 155.228,0 200,44.7715 200,100 200,155.228 155.228,200 100,200 44.7715,200 0,155.228 0,100 Z"
       fill="#ffffff"
       id="path6"
       style="opacity:1" />
  </g>
</svg>
